STARTFONT 2.1
FONT -Bitstream-Terminal-Bold-R-Narrow--25-180-100-100-C-90-ISO8859-1
SIZE 18 100 100
FONTBOUNDINGBOX 9 25 0 -5

STARTPROPERTIES 25
FOUNDRY "Bitstream"
FAMILY_NAME "Terminal"
WEIGHT_NAME "Bold"
SLANT "R"
SETWIDTH_NAME "Narrow"
ADD_STYLE_NAME ""
PIXEL_SIZE 25
POINT_SIZE 180
RESOLUTION_X 100
RESOLUTION_Y 100
SPACING "C"
AVERAGE_WIDTH 90
CHARSET_REGISTRY "ISO8859"
CHARSET_ENCODING "1"
CAP_HEIGHT 15
X_HEIGHT 12
COPYRIGHT "Copyright (c) 1991 Digital Equipment Corporation. All Rights Reserved."
_DEC_PRODUCTINFO "DECterm Fonts V2.2, 11-Nov-1991"
FIGURE_WIDTH 9
FULL_NAME "Terminal Bold Narrow"
WEIGHT 10
QUAD_WIDTH 9
DEFAULT_CHAR 159
FONT_DESCENT 5
FONT_ASCENT 20
ENDPROPERTIES

CHARS 195

STARTCHAR space
ENCODING 32
SWIDTH 360 0
DWIDTH 9 0
BBX 9 25 0 -5
BITMAP
0000
0000
0000
0000
0000
0000
0000
0000
0000
0000
0000
0000
0000
0000
0000
0000
0000
0000
0000
0000
0000
0000
0000
0000
0000
ENDCHAR

STARTCHAR exclam
ENCODING 33
SWIDTH 360 0
DWIDTH 9 0
BBX 9 25 0 -5
BITMAP
0000
0000
0000
0000
0000
1800
1800
1800
1800
1800
1800
1800
1800
1800
1800
0000
0800
1C00
1C00
0800
0000
0000
0000
0000
0000
ENDCHAR

STARTCHAR quotedbl
ENCODING 34
SWIDTH 360 0
DWIDTH 9 0
BBX 9 25 0 -5
BITMAP
0000
0000
0000
6600
6600
6600
6600
6600
6600
0000
0000
0000
0000
0000
0000
0000
0000
0000
0000
0000
0000
0000
0000
0000
0000
ENDCHAR

STARTCHAR numbersign
ENCODING 35
SWIDTH 360 0
DWIDTH 9 0
BBX 9 25 0 -5
BITMAP
0000
0000
0000
0000
0000
3600
3600
3600
3600
7F00
7F00
3600
3600
3600
3600
7F00
7F00
3600
3600
3600
3600
0000
0000
0000
0000
ENDCHAR

STARTCHAR dollar
ENCODING 36
SWIDTH 360 0
DWIDTH 9 0
BBX 9 25 0 -5
BITMAP
0000
0000
0000
0C00
0C00
0C00
3E00
7F00
6300
6000
6000
6000
7E00
3F00
0300
0300
6300
6300
7F00
3E00
0C00
0C00
0C00
0000
0000
ENDCHAR

STARTCHAR percent
ENCODING 37
SWIDTH 360 0
DWIDTH 9 0
BBX 9 25 0 -5
BITMAP
0000
0000
0000
0000
0000
7800
CC00
CC00
CC00
7900
0700
0C00
1800
7000
C000
9E00
3300
3300
3300
1E00
0000
0000
0000
0000
0000
ENDCHAR

STARTCHAR ampersand
ENCODING 38
SWIDTH 360 0
DWIDTH 9 0
BBX 9 25 0 -5
BITMAP
0000
0000
0000
0000
0000
1C00
7C00
6000
6000
6000
6000
3000
3000
7A00
CE00
CC00
CC00
CC00
FE00
7600
0000
0000
0000
0000
0000
ENDCHAR

STARTCHAR quoteright
ENCODING 39
SWIDTH 360 0
DWIDTH 9 0
BBX 9 25 0 -5
BITMAP
0000
0000
0000
0000
0E00
0C00
1800
1800
3000
0000
0000
0000
0000
0000
0000
0000
0000
0000
0000
0000
0000
0000
0000
0000
0000
ENDCHAR

STARTCHAR parenleft
ENCODING 40
SWIDTH 360 0
DWIDTH 9 0
BBX 9 25 0 -5
BITMAP
0000
0000
0000
0000
0600
0C00
1800
1800
3000
3000
3000
3000
3000
3000
3000
3000
3000
1800
1800
0C00
0C00
0600
0000
0000
0000
ENDCHAR

STARTCHAR parenright
ENCODING 41
SWIDTH 360 0
DWIDTH 9 0
BBX 9 25 0 -5
BITMAP
0000
0000
0000
0000
6000
3000
1800
1800
0C00
0C00
0C00
0C00
0C00
0C00
0C00
0C00
0C00
1800
1800
3000
3000
6000
0000
0000
0000
ENDCHAR

STARTCHAR asterisk
ENCODING 42
SWIDTH 360 0
DWIDTH 9 0
BBX 9 25 0 -5
BITMAP
0000
0000
0000
0000
0000
0000
0000
0000
1000
D600
D600
7C00
3800
3800
6C00
6C00
0000
0000
0000
0000
0000
0000
0000
0000
0000
ENDCHAR

STARTCHAR plus
ENCODING 43
SWIDTH 360 0
DWIDTH 9 0
BBX 9 25 0 -5
BITMAP
0000
0000
0000
0000
0000
0000
0000
0000
0000
1800
1800
1800
7E00
7E00
1800
1800
1800
0000
0000
0000
0000
0000
0000
0000
0000
ENDCHAR

STARTCHAR comma
ENCODING 44
SWIDTH 360 0
DWIDTH 9 0
BBX 9 25 0 -5
BITMAP
0000
0000
0000
0000
0000
0000
0000
0000
0000
0000
0000
0000
0000
0000
0000
0000
0E00
0C00
1800
1800
3000
3000
0000
0000
0000
ENDCHAR

STARTCHAR minus
ENCODING 45
SWIDTH 360 0
DWIDTH 9 0
BBX 9 25 0 -5
BITMAP
0000
0000
0000
0000
0000
0000
0000
0000
0000
0000
0000
0000
7E00
7E00
0000
0000
0000
0000
0000
0000
0000
0000
0000
0000
0000
ENDCHAR

STARTCHAR period
ENCODING 46
SWIDTH 360 0
DWIDTH 9 0
BBX 9 25 0 -5
BITMAP
0000
0000
0000
0000
0000
0000
0000
0000
0000
0000
0000
0000
0000
0000
0000
0000
1000
3800
3800
1000
0000
0000
0000
0000
0000
ENDCHAR

STARTCHAR slash
ENCODING 47
SWIDTH 360 0
DWIDTH 9 0
BBX 9 25 0 -5
BITMAP
0000
0000
0000
0600
0600
0600
0600
0C00
0C00
0C00
1800
1800
1800
1800
3000
3000
3000
3000
6000
6000
6000
6000
0000
0000
0000
ENDCHAR

STARTCHAR zero
ENCODING 48
SWIDTH 360 0
DWIDTH 9 0
BBX 9 25 0 -5
BITMAP
0000
0000
0000
0000
0000
1C00
3E00
3600
6300
6300
6300
6300
6300
6300
6300
6300
6300
3600
3E00
1C00
0000
0000
0000
0000
0000
ENDCHAR

STARTCHAR one
ENCODING 49
SWIDTH 360 0
DWIDTH 9 0
BBX 9 25 0 -5
BITMAP
0000
0000
0000
0000
0000
1800
3800
7800
5800
1800
1800
1800
1800
1800
1800
1800
1800
1800
3C00
3C00
0000
0000
0000
0000
0000
ENDCHAR

STARTCHAR two
ENCODING 50
SWIDTH 360 0
DWIDTH 9 0
BBX 9 25 0 -5
BITMAP
0000
0000
0000
0000
0000
3E00
7F00
6300
0300
0300
0300
0600
0600
0C00
1800
1800
3000
3000
7F00
7F00
0000
0000
0000
0000
0000
ENDCHAR

STARTCHAR three
ENCODING 51
SWIDTH 360 0
DWIDTH 9 0
BBX 9 25 0 -5
BITMAP
0000
0000
0000
0000
0000
3E00
7F00
6300
0300
0300
0300
1E00
1E00
0300
0300
0300
0300
6300
7F00
3E00
0000
0000
0000
0000
0000
ENDCHAR

STARTCHAR four
ENCODING 52
SWIDTH 360 0
DWIDTH 9 0
BBX 9 25 0 -5
BITMAP
0000
0000
0000
0000
0000
0600
0E00
1E00
1600
3600
2600
2600
6600
7F00
7F00
0600
0600
0600
0600
0600
0000
0000
0000
0000
0000
ENDCHAR

STARTCHAR five
ENCODING 53
SWIDTH 360 0
DWIDTH 9 0
BBX 9 25 0 -5
BITMAP
0000
0000
0000
0000
0000
7F00
7F00
6000
6000
6000
6000
7E00
7F00
0300
0300
0300
6300
6300
7F00
3E00
0000
0000
0000
0000
0000
ENDCHAR

STARTCHAR six
ENCODING 54
SWIDTH 360 0
DWIDTH 9 0
BBX 9 25 0 -5
BITMAP
0000
0000
0000
0000
0000
0700
1F00
3800
3000
3000
7E00
7F00
6300
6300
6300
6300
6300
6300
7F00
3E00
0000
0000
0000
0000
0000
ENDCHAR

STARTCHAR seven
ENCODING 55
SWIDTH 360 0
DWIDTH 9 0
BBX 9 25 0 -5
BITMAP
0000
0000
0000
0000
0000
7F00
7F00
4300
0300
0300
0600
0600
0C00
0C00
0C00
1800
1800
1800
1800
1800
0000
0000
0000
0000
0000
ENDCHAR

STARTCHAR eight
ENCODING 56
SWIDTH 360 0
DWIDTH 9 0
BBX 9 25 0 -5
BITMAP
0000
0000
0000
0000
0000
3E00
7F00
6300
6300
6300
6300
3E00
7F00
6300
6300
6300
6300
6300
7F00
3E00
0000
0000
0000
0000
0000
ENDCHAR

STARTCHAR nine
ENCODING 57
SWIDTH 360 0
DWIDTH 9 0
BBX 9 25 0 -5
BITMAP
0000
0000
0000
0000
0000
3E00
7F00
6300
6300
6300
6300
6300
7F00
3F00
0600
0600
0600
0C00
7C00
7800
0000
0000
0000
0000
0000
ENDCHAR

STARTCHAR colon
ENCODING 58
SWIDTH 360 0
DWIDTH 9 0
BBX 9 25 0 -5
BITMAP
0000
0000
0000
0000
0000
0000
0000
0000
0000
0800
1C00
1C00
0800
0000
0000
0000
0800
1C00
1C00
0800
0000
0000
0000
0000
0000
ENDCHAR

STARTCHAR semicolon
ENCODING 59
SWIDTH 360 0
DWIDTH 9 0
BBX 9 25 0 -5
BITMAP
0000
0000
0000
0000
0000
0000
0000
0000
0000
0400
0E00
0E00
0400
0000
0000
0000
0E00
0C00
1800
1800
3000
3000
0000
0000
0000
ENDCHAR

STARTCHAR less
ENCODING 60
SWIDTH 360 0
DWIDTH 9 0
BBX 9 25 0 -5
BITMAP
0000
0000
0000
0000
0000
0000
0000
0000
0300
0700
0E00
1C00
3800
7000
3800
1C00
0E00
0700
0300
0000
0000
0000
0000
0000
0000
ENDCHAR

STARTCHAR equal
ENCODING 61
SWIDTH 360 0
DWIDTH 9 0
BBX 9 25 0 -5
BITMAP
0000
0000
0000
0000
0000
0000
0000
0000
0000
0000
7F00
7F00
0000
0000
7F00
7F00
0000
0000
0000
0000
0000
0000
0000
0000
0000
ENDCHAR

STARTCHAR greater
ENCODING 62
SWIDTH 360 0
DWIDTH 9 0
BBX 9 25 0 -5
BITMAP
0000
0000
0000
0000
0000
0000
0000
0000
6000
7000
3800
1C00
0E00
0700
0E00
1C00
3800
7000
6000
0000
0000
0000
0000
0000
0000
ENDCHAR

STARTCHAR question
ENCODING 63
SWIDTH 360 0
DWIDTH 9 0
BBX 9 25 0 -5
BITMAP
0000
0000
0000
0000
0000
3E00
7F00
6300
0300
0700
0E00
0C00
1800
1800
0000
0000
0800
1C00
1C00
0800
0000
0000
0000
0000
0000
ENDCHAR

STARTCHAR at
ENCODING 64
SWIDTH 360 0
DWIDTH 9 0
BBX 9 25 0 -5
BITMAP
0000
0000
0000
0000
1C00
3E00
7300
6100
6100
6700
6F00
6D00
6900
6900
6900
6D00
6F00
6700
6000
7000
3F00
1E00
0000
0000
0000
ENDCHAR

STARTCHAR A
ENCODING 65
SWIDTH 360 0
DWIDTH 9 0
BBX 9 25 0 -5
BITMAP
0000
0000
0000
0000
0000
1C00
3E00
3E00
6300
6300
6300
6300
6300
7F00
7F00
6300
6300
6300
6300
6300
0000
0000
0000
0000
0000
ENDCHAR

STARTCHAR B
ENCODING 66
SWIDTH 360 0
DWIDTH 9 0
BBX 9 25 0 -5
BITMAP
0000
0000
0000
0000
0000
7E00
7F00
6300
6300
6300
6300
7E00
7E00
6300
6300
6300
6300
6300
7F00
7E00
0000
0000
0000
0000
0000
ENDCHAR

STARTCHAR C
ENCODING 67
SWIDTH 360 0
DWIDTH 9 0
BBX 9 25 0 -5
BITMAP
0000
0000
0000
0000
0000
3B00
7F00
6300
6300
6000
6000
6000
6000
6000
6000
6000
6300
6300
7F00
3E00
0000
0000
0000
0000
0000
ENDCHAR

STARTCHAR D
ENCODING 68
SWIDTH 360 0
DWIDTH 9 0
BBX 9 25 0 -5
BITMAP
0000
0000
0000
0000
0000
7E00
7F00
6300
6300
6300
6300
6300
6300
6300
6300
6300
6300
6300
7F00
7E00
0000
0000
0000
0000
0000
ENDCHAR

STARTCHAR E
ENCODING 69
SWIDTH 360 0
DWIDTH 9 0
BBX 9 25 0 -5
BITMAP
0000
0000
0000
0000
0000
3F00
3F00
3000
3000
3000
3000
3F00
3F00
3000
3000
3000
3000
3000
3F00
3F00
0000
0000
0000
0000
0000
ENDCHAR

STARTCHAR F
ENCODING 70
SWIDTH 360 0
DWIDTH 9 0
BBX 9 25 0 -5
BITMAP
0000
0000
0000
0000
0000
3F80
3F80
3000
3000
3000
3000
3F00
3F00
3000
3000
3000
3000
3000
3000
3000
0000
0000
0000
0000
0000
ENDCHAR

STARTCHAR G
ENCODING 71
SWIDTH 360 0
DWIDTH 9 0
BBX 9 25 0 -5
BITMAP
0000
0000
0000
0000
0000
3D00
7F00
6300
6300
6000
6000
6000
6000
6700
6700
6300
6300
6300
7F00
3F00
0000
0000
0000
0000
0000
ENDCHAR

STARTCHAR H
ENCODING 72
SWIDTH 360 0
DWIDTH 9 0
BBX 9 25 0 -5
BITMAP
0000
0000
0000
0000
0000
6300
6300
6300
6300
6300
6300
7F00
7F00
6300
6300
6300
6300
6300
6300
6300
0000
0000
0000
0000
0000
ENDCHAR

STARTCHAR I
ENCODING 73
SWIDTH 360 0
DWIDTH 9 0
BBX 9 25 0 -5
BITMAP
0000
0000
0000
0000
0000
7E00
7E00
1800
1800
1800
1800
1800
1800
1800
1800
1800
1800
1800
7E00
7E00
0000
0000
0000
0000
0000
ENDCHAR

STARTCHAR J
ENCODING 74
SWIDTH 360 0
DWIDTH 9 0
BBX 9 25 0 -5
BITMAP
0000
0000
0000
0000
0000
1F00
1F00
0600
0600
0600
0600
0600
0600
0600
0600
6600
6600
6600
7E00
3C00
0000
0000
0000
0000
0000
ENDCHAR

STARTCHAR K
ENCODING 75
SWIDTH 360 0
DWIDTH 9 0
BBX 9 25 0 -5
BITMAP
0000
0000
0000
0000
0000
6300
6300
6600
6600
6600
6C00
6C00
7800
7C00
6C00
6600
6600
6300
6300
6300
0000
0000
0000
0000
0000
ENDCHAR

STARTCHAR L
ENCODING 76
SWIDTH 360 0
DWIDTH 9 0
BBX 9 25 0 -5
BITMAP
0000
0000
0000
0000
0000
3000
3000
3000
3000
3000
3000
3000
3000
3000
3000
3000
3000
3000
3F00
3F00
0000
0000
0000
0000
0000
ENDCHAR

STARTCHAR M
ENCODING 77
SWIDTH 360 0
DWIDTH 9 0
BBX 9 25 0 -5
BITMAP
0000
0000
0000
0000
0000
4100
6300
6300
6300
7700
7700
7F00
6B00
6B00
6300
6300
6300
6300
6300
6300
0000
0000
0000
0000
0000
ENDCHAR

STARTCHAR N
ENCODING 78
SWIDTH 360 0
DWIDTH 9 0
BBX 9 25 0 -5
BITMAP
0000
0000
0000
0000
0000
6300
6300
6300
7300
7300
7300
7B00
6B00
6B00
6F00
6700
6700
6300
6300
6300
0000
0000
0000
0000
0000
ENDCHAR

STARTCHAR O
ENCODING 79
SWIDTH 360 0
DWIDTH 9 0
BBX 9 25 0 -5
BITMAP
0000
0000
0000
0000
0000
3E00
7F00
6300
6300
6300
6300
6300
6300
6300
6300
6300
6300
6300
7F00
3E00
0000
0000
0000
0000
0000
ENDCHAR

STARTCHAR P
ENCODING 80
SWIDTH 360 0
DWIDTH 9 0
BBX 9 25 0 -5
BITMAP
0000
0000
0000
0000
0000
7E00
7F00
6300
6300
6300
6300
6300
7F00
7E00
6000
6000
6000
6000
6000
6000
0000
0000
0000
0000
0000
ENDCHAR

STARTCHAR Q
ENCODING 81
SWIDTH 360 0
DWIDTH 9 0
BBX 9 25 0 -5
BITMAP
0000
0000
0000
0000
0000
3E00
7F00
6300
6300
6300
6300
6300
6300
6300
6300
6300
6300
6300
7F00
3E00
3000
7F00
6700
0000
0000
ENDCHAR

STARTCHAR R
ENCODING 82
SWIDTH 360 0
DWIDTH 9 0
BBX 9 25 0 -5
BITMAP
0000
0000
0000
0000
0000
7E00
7F00
6300
6300
6300
6300
6300
7E00
7E00
6C00
6600
6600
6300
6300
6300
0000
0000
0000
0000
0000
ENDCHAR

STARTCHAR S
ENCODING 83
SWIDTH 360 0
DWIDTH 9 0
BBX 9 25 0 -5
BITMAP
0000
0000
0000
0000
0000
3F00
7F00
6300
6000
7000
3000
3800
1C00
0E00
0600
0700
0300
6300
7F00
7E00
0000
0000
0000
0000
0000
ENDCHAR

STARTCHAR T
ENCODING 84
SWIDTH 360 0
DWIDTH 9 0
BBX 9 25 0 -5
BITMAP
0000
0000
0000
0000
0000
7F80
7F80
0C00
0C00
0C00
0C00
0C00
0C00
0C00
0C00
0C00
0C00
0C00
0C00
0C00
0000
0000
0000
0000
0000
ENDCHAR

STARTCHAR U
ENCODING 85
SWIDTH 360 0
DWIDTH 9 0
BBX 9 25 0 -5
BITMAP
0000
0000
0000
0000
0000
6300
6300
6300
6300
6300
6300
6300
6300
6300
6300
6300
6300
6300
7F00
3E00
0000
0000
0000
0000
0000
ENDCHAR

STARTCHAR V
ENCODING 86
SWIDTH 360 0
DWIDTH 9 0
BBX 9 25 0 -5
BITMAP
0000
0000
0000
0000
0000
6300
6300
6300
6300
6300
6300
6300
6300
6300
6300
6300
3600
3E00
1C00
1C00
0000
0000
0000
0000
0000
ENDCHAR

STARTCHAR W
ENCODING 87
SWIDTH 360 0
DWIDTH 9 0
BBX 9 25 0 -5
BITMAP
0000
0000
0000
0000
0000
6300
6300
6300
6300
6300
6300
6300
6B00
6B00
7F00
7700
7700
6300
6300
6300
0000
0000
0000
0000
0000
ENDCHAR

STARTCHAR X
ENCODING 88
SWIDTH 360 0
DWIDTH 9 0
BBX 9 25 0 -5
BITMAP
0000
0000
0000
0000
0000
6300
6300
6300
6300
6300
3600
3E00
1C00
3E00
3600
6300
6300
6300
6300
6300
0000
0000
0000
0000
0000
ENDCHAR

STARTCHAR Y
ENCODING 89
SWIDTH 360 0
DWIDTH 9 0
BBX 9 25 0 -5
BITMAP
0000
0000
0000
0000
0000
6180
6180
6180
6180
6180
6180
3300
3F00
1E00
0C00
0C00
0C00
0C00
0C00
0C00
0000
0000
0000
0000
0000
ENDCHAR

STARTCHAR Z
ENCODING 90
SWIDTH 360 0
DWIDTH 9 0
BBX 9 25 0 -5
BITMAP
0000
0000
0000
0000
0000
7F00
7F00
4300
0600
0600
0600
0C00
0C00
1C00
1800
1800
3800
3100
7F00
7F00
0000
0000
0000
0000
0000
ENDCHAR

STARTCHAR bracketleft
ENCODING 91
SWIDTH 360 0
DWIDTH 9 0
BBX 9 25 0 -5
BITMAP
0000
0000
0000
0000
1E00
1E00
1800
1800
1800
1800
1800
1800
1800
1800
1800
1800
1800
1800
1800
1800
1E00
1E00
0000
0000
0000
ENDCHAR

STARTCHAR backslash
ENCODING 92
SWIDTH 360 0
DWIDTH 9 0
BBX 9 25 0 -5
BITMAP
0000
0000
0000
3000
3000
3000
3000
3000
1800
1800
1800
1800
1800
0C00
0C00
0C00
0C00
0C00
0600
0600
0600
0600
0000
0000
0000
ENDCHAR

STARTCHAR bracketright
ENCODING 93
SWIDTH 360 0
DWIDTH 9 0
BBX 9 25 0 -5
BITMAP
0000
0000
0000
0000
3C00
3C00
0C00
0C00
0C00
0C00
0C00
0C00
0C00
0C00
0C00
0C00
0C00
0C00
0C00
0C00
3C00
3C00
0000
0000
0000
ENDCHAR

STARTCHAR asciicircum
ENCODING 94
SWIDTH 360 0
DWIDTH 9 0
BBX 9 25 0 -5
BITMAP
0000
0000
0000
0000
0000
0000
0000
0000
0000
0000
1C00
3E00
7700
6300
4100
0000
0000
0000
0000
0000
0000
0000
0000
0000
0000
ENDCHAR

STARTCHAR underscore
ENCODING 95
SWIDTH 360 0
DWIDTH 9 0
BBX 9 25 0 -5
BITMAP
0000
0000
0000
0000
0000
0000
0000
0000
0000
0000
0000
0000
0000
0000
0000
0000
0000
0000
FF80
FF80
0000
0000
0000
0000
0000
ENDCHAR

STARTCHAR quoteleft
ENCODING 96
SWIDTH 360 0
DWIDTH 9 0
BBX 9 25 0 -5
BITMAP
0000
0000
0000
0000
3800
1800
0C00
0C00
0600
0000
0000
0000
0000
0000
0000
0000
0000
0000
0000
0000
0000
0000
0000
0000
0000
ENDCHAR

STARTCHAR a
ENCODING 97
SWIDTH 360 0
DWIDTH 9 0
BBX 9 25 0 -5
BITMAP
0000
0000
0000
0000
0000
0000
0000
0000
3E00
7F00
0300
0300
3F00
7F00
6300
6300
6300
6300
7F00
3B00
0000
0000
0000
0000
0000
ENDCHAR

STARTCHAR b
ENCODING 98
SWIDTH 360 0
DWIDTH 9 0
BBX 9 25 0 -5
BITMAP
0000
0000
0000
0000
6000
6000
6000
6000
6E00
7F00
6300
6300
6300
6300
6300
6300
6300
6300
7F00
7E00
0000
0000
0000
0000
0000
ENDCHAR

STARTCHAR c
ENCODING 99
SWIDTH 360 0
DWIDTH 9 0
BBX 9 25 0 -5
BITMAP
0000
0000
0000
0000
0000
0000
0000
0000
3D00
7F00
6300
6300
6000
6000
6000
6000
6300
6300
7F00
3E00
0000
0000
0000
0000
0000
ENDCHAR

STARTCHAR d
ENCODING 100
SWIDTH 360 0
DWIDTH 9 0
BBX 9 25 0 -5
BITMAP
0000
0000
0000
0000
0300
0300
0300
0300
3B00
7F00
6300
6300
6300
6300
6300
6300
6300
6300
7F00
3F00
0000
0000
0000
0000
0000
ENDCHAR

STARTCHAR e
ENCODING 101
SWIDTH 360 0
DWIDTH 9 0
BBX 9 25 0 -5
BITMAP
0000
0000
0000
0000
0000
0000
0000
0000
3E00
7F00
6300
6300
6300
7F00
7F00
6000
6300
6300
7F00
3E00
0000
0000
0000
0000
0000
ENDCHAR

STARTCHAR f
ENCODING 102
SWIDTH 360 0
DWIDTH 9 0
BBX 9 25 0 -5
BITMAP
0000
0000
0000
0000
0F00
1F00
1800
1800
7F00
7F00
1800
1800
1800
1800
1800
1800
1800
1800
7E00
7E00
0000
0000
0000
0000
0000
ENDCHAR

STARTCHAR g
ENCODING 103
SWIDTH 360 0
DWIDTH 9 0
BBX 9 25 0 -5
BITMAP
0000
0000
0000
0000
0000
0000
0000
0000
3B00
7F00
6300
6300
6300
6300
6300
6300
6300
6300
7F00
3F00
0300
0300
3F00
3E00
0000
ENDCHAR

STARTCHAR h
ENCODING 104
SWIDTH 360 0
DWIDTH 9 0
BBX 9 25 0 -5
BITMAP
0000
0000
0000
0000
0000
6000
6000
6000
6E00
7F00
6300
6300
6300
6300
6300
6300
6300
6300
6300
6300
0000
0000
0000
0000
0000
ENDCHAR

STARTCHAR i
ENCODING 105
SWIDTH 360 0
DWIDTH 9 0
BBX 9 25 0 -5
BITMAP
0000
0000
0000
0C00
0C00
0C00
0000
0000
3C00
3C00
0C00
0C00
0C00
0C00
0C00
0C00
0C00
0C00
3F00
3F00
0000
0000
0000
0000
0000
ENDCHAR

STARTCHAR j
ENCODING 106
SWIDTH 360 0
DWIDTH 9 0
BBX 9 25 0 -5
BITMAP
0000
0000
0000
0C00
0C00
0C00
0000
0000
7C00
7C00
0C00
0C00
0C00
0C00
0C00
0C00
0C00
0C00
0C00
0C00
0C00
0C00
7C00
7800
0000
ENDCHAR

STARTCHAR k
ENCODING 107
SWIDTH 360 0
DWIDTH 9 0
BBX 9 25 0 -5
BITMAP
0000
0000
0000
0000
6000
6000
6000
6000
6300
6300
6600
6C00
6C00
7800
7C00
6C00
6600
6600
6300
6300
0000
0000
0000
0000
0000
ENDCHAR

STARTCHAR l
ENCODING 108
SWIDTH 360 0
DWIDTH 9 0
BBX 9 25 0 -5
BITMAP
0000
0000
0000
0000
7800
7800
1800
1800
1800
1800
1800
1800
1800
1800
1800
1800
1800
1800
7E00
7E00
0000
0000
0000
0000
0000
ENDCHAR

STARTCHAR m
ENCODING 109
SWIDTH 360 0
DWIDTH 9 0
BBX 9 25 0 -5
BITMAP
0000
0000
0000
0000
0000
0000
0000
0000
B600
FF00
DB00
DB00
DB00
DB00
DB00
DB00
DB00
DB00
DB00
DB00
0000
0000
0000
0000
0000
ENDCHAR

STARTCHAR n
ENCODING 110
SWIDTH 360 0
DWIDTH 9 0
BBX 9 25 0 -5
BITMAP
0000
0000
0000
0000
0000
0000
0000
0000
6E00
7F00
6300
6300
6300
6300
6300
6300
6300
6300
6300
6300
0000
0000
0000
0000
0000
ENDCHAR

STARTCHAR o
ENCODING 111
SWIDTH 360 0
DWIDTH 9 0
BBX 9 25 0 -5
BITMAP
0000
0000
0000
0000
0000
0000
0000
0000
3E00
7F00
6300
6300
6300
6300
6300
6300
6300
6300
7F00
3E00
0000
0000
0000
0000
0000
ENDCHAR

STARTCHAR p
ENCODING 112
SWIDTH 360 0
DWIDTH 9 0
BBX 9 25 0 -5
BITMAP
0000
0000
0000
0000
0000
0000
0000
0000
6E00
7F00
6300
6300
6300
6300
6300
6300
6300
6300
7F00
7E00
6000
6000
6000
6000
0000
ENDCHAR

STARTCHAR q
ENCODING 113
SWIDTH 360 0
DWIDTH 9 0
BBX 9 25 0 -5
BITMAP
0000
0000
0000
0000
0000
0000
0000
0000
3B00
7F00
6300
6300
6300
6300
6300
6300
6300
6300
7F00
3F00
0300
0300
0300
0300
0000
ENDCHAR

STARTCHAR r
ENCODING 114
SWIDTH 360 0
DWIDTH 9 0
BBX 9 25 0 -5
BITMAP
0000
0000
0000
0000
0000
0000
0000
0000
6F00
7F00
3000
3000
3000
3000
3000
3000
3000
3000
7C00
7C00
0000
0000
0000
0000
0000
ENDCHAR

STARTCHAR s
ENCODING 115
SWIDTH 360 0
DWIDTH 9 0
BBX 9 25 0 -5
BITMAP
0000
0000
0000
0000
0000
0000
0000
0000
3E00
7E00
6000
6000
7000
3800
1C00
0E00
0600
0600
7E00
7C00
0000
0000
0000
0000
0000
ENDCHAR

STARTCHAR t
ENCODING 116
SWIDTH 360 0
DWIDTH 9 0
BBX 9 25 0 -5
BITMAP
0000
0000
0000
0000
0000
1800
1800
1800
7F00
7F00
1800
1800
1800
1800
1800
1800
1800
1800
1F00
0F00
0000
0000
0000
0000
0000
ENDCHAR

STARTCHAR u
ENCODING 117
SWIDTH 360 0
DWIDTH 9 0
BBX 9 25 0 -5
BITMAP
0000
0000
0000
0000
0000
0000
0000
0000
6300
6300
6300
6300
6300
6300
6300
6300
6300
6300
7F00
3B00
0000
0000
0000
0000
0000
ENDCHAR

STARTCHAR v
ENCODING 118
SWIDTH 360 0
DWIDTH 9 0
BBX 9 25 0 -5
BITMAP
0000
0000
0000
0000
0000
0000
0000
0000
6300
6300
6300
6300
6300
6300
6300
6300
3600
3600
1C00
1C00
0000
0000
0000
0000
0000
ENDCHAR

STARTCHAR w
ENCODING 119
SWIDTH 360 0
DWIDTH 9 0
BBX 9 25 0 -5
BITMAP
0000
0000
0000
0000
0000
0000
0000
0000
C300
C300
DB00
DB00
DB00
DB00
DB00
DB00
7E00
7E00
6600
6600
0000
0000
0000
0000
0000
ENDCHAR

STARTCHAR x
ENCODING 120
SWIDTH 360 0
DWIDTH 9 0
BBX 9 25 0 -5
BITMAP
0000
0000
0000
0000
0000
0000
0000
0000
6300
6300
6300
3600
3E00
1C00
3E00
3600
6300
6300
6300
6300
0000
0000
0000
0000
0000
ENDCHAR

STARTCHAR y
ENCODING 121
SWIDTH 360 0
DWIDTH 9 0
BBX 9 25 0 -5
BITMAP
0000
0000
0000
0000
0000
0000
0000
0000
6300
6300
6300
6300
6300
6300
3600
3600
1C00
1C00
1800
1800
3800
3000
7000
6000
0000
ENDCHAR

STARTCHAR z
ENCODING 122
SWIDTH 360 0
DWIDTH 9 0
BBX 9 25 0 -5
BITMAP
0000
0000
0000
0000
0000
0000
0000
0000
7F00
7F00
0600
0600
0C00
0C00
1800
1800
3000
3000
7F00
7F00
0000
0000
0000
0000
0000
ENDCHAR

STARTCHAR braceleft
ENCODING 123
SWIDTH 360 0
DWIDTH 9 0
BBX 9 25 0 -5
BITMAP
0000
0000
0000
0000
0600
0600
0C00
0C00
0C00
0C00
0C00
0C00
7800
0C00
0C00
0C00
0C00
0C00
0C00
0C00
0600
0600
0000
0000
0000
ENDCHAR

STARTCHAR bar
ENCODING 124
SWIDTH 360 0
DWIDTH 9 0
BBX 9 25 0 -5
BITMAP
0000
0000
0000
0C00
0C00
0C00
0C00
0C00
0C00
0C00
0C00
0C00
0C00
0C00
0C00
0C00
0C00
0C00
0C00
0C00
0C00
0C00
0C00
0C00
0000
ENDCHAR

STARTCHAR braceright
ENCODING 125
SWIDTH 360 0
DWIDTH 9 0
BBX 9 25 0 -5
BITMAP
0000
0000
0000
0000
1800
1800
0C00
0C00
0C00
0C00
0C00
0C00
0700
0C00
0C00
0C00
0C00
0C00
0C00
0C00
1800
1800
0000
0000
0000
ENDCHAR

STARTCHAR asciitilde
ENCODING 126
SWIDTH 360 0
DWIDTH 9 0
BBX 9 25 0 -5
BITMAP
0000
0000
0000
0000
0000
0000
0000
0000
0000
0000
0000
3900
7F00
4E00
0000
0000
0000
0000
0000
0000
0000
0000
0000
0000
0000
ENDCHAR

STARTCHAR OE
ENCODING 128
SWIDTH 360 0
DWIDTH 9 0
BBX 9 25 0 -5
BITMAP
0000
0000
0000
0000
0000
7F00
FF00
D800
D800
D800
D800
DF00
DF00
D800
D800
D800
D800
D800
FF00
7F00
0000
0000
0000
0000
0000
ENDCHAR

STARTCHAR oe
ENCODING 129
SWIDTH 360 0
DWIDTH 9 0
BBX 9 25 0 -5
BITMAP
0000
0000
0000
0000
0000
0000
0000
0000
6E00
FF00
D900
D900
D900
DF00
DF00
D800
D800
D800
FF00
7700
0000
0000
0000
0000
0000
ENDCHAR

STARTCHAR Ydieresis
ENCODING 130
SWIDTH 360 0
DWIDTH 9 0
BBX 9 25 0 -5
BITMAP
0000
3300
3300
0000
0000
6180
6180
6180
6180
6180
6180
3300
3F00
1E00
0C00
0C00
0C00
0C00
0C00
0C00
0000
0000
0000
0000
0000
ENDCHAR

STARTCHAR Error
ENCODING 159
SWIDTH 360 0
DWIDTH 9 0
BBX 9 25 0 -5
BITMAP
3E00
7F00
FF80
E380
E380
E000
E000
F000
7800
3C00
1C00
1C00
1C00
1C00
1C00
1C00
1C00
1C00
0000
0000
0000
1C00
1C00
1C00
1C00
ENDCHAR

STARTCHAR space
ENCODING 160
SWIDTH 360 0
DWIDTH 9 0
BBX 9 25 0 -5
BITMAP
0000
0000
0000
0000
0000
0000
0000
0000
0000
0000
0000
0000
0000
0000
0000
0000
0000
0000
0000
0000
0000
0000
0000
0000
0000
ENDCHAR

STARTCHAR exclamdown
ENCODING 161
SWIDTH 360 0
DWIDTH 9 0
BBX 9 25 0 -5
BITMAP
0000
0000
0000
0000
0000
0000
0000
0800
1C00
1C00
0800
0000
1800
1800
1800
1800
1800
1800
1800
1800
1800
1800
0000
0000
0000
ENDCHAR

STARTCHAR cent
ENCODING 162
SWIDTH 360 0
DWIDTH 9 0
BBX 9 25 0 -5
BITMAP
0000
0000
0000
0000
0000
0000
1800
1800
3C00
7E00
6600
6600
6000
6000
6000
6600
6600
7E00
3C00
1800
1800
0000
0000
0000
0000
ENDCHAR

STARTCHAR sterling
ENCODING 163
SWIDTH 360 0
DWIDTH 9 0
BBX 9 25 0 -5
BITMAP
0000
0000
0000
0000
0000
0E00
3F00
3300
3000
3000
1800
1800
7F00
7F00
1800
1800
1800
3800
7F00
6700
0000
0000
0000
0000
0000
ENDCHAR

STARTCHAR currency
ENCODING 164
SWIDTH 360 0
DWIDTH 9 0
BBX 9 25 0 -5
BITMAP
0000
0000
0000
0000
0000
0000
0000
0000
C300
DB00
7E00
6600
6600
6600
6600
6600
7E00
DB00
C300
0000
0000
0000
0000
0000
0000
ENDCHAR

STARTCHAR yen
ENCODING 165
SWIDTH 360 0
DWIDTH 9 0
BBX 9 25 0 -5
BITMAP
0000
0000
0000
0000
0000
6600
6600
6600
6600
6600
2400
3C00
7E00
1800
1800
7E00
1800
1800
3C00
3C00
0000
0000
0000
0000
0000
ENDCHAR

STARTCHAR brokenbar
ENCODING 166
SWIDTH 360 0
DWIDTH 9 0
BBX 9 25 0 -5
BITMAP
0000
0000
0000
1800
1800
1800
1800
1800
1800
1800
1800
0000
0000
0000
0000
0000
1800
1800
1800
1800
1800
1800
1800
1800
0000
ENDCHAR

STARTCHAR section
ENCODING 167
SWIDTH 360 0
DWIDTH 9 0
BBX 9 25 0 -5
BITMAP
0000
0000
0000
0000
0000
0F00
3F00
3100
3000
3800
7C00
6C00
6600
3600
3300
1B00
1B00
0E00
0600
4600
7E00
7C00
0000
0000
0000
ENDCHAR

STARTCHAR dieresis
ENCODING 168
SWIDTH 360 0
DWIDTH 9 0
BBX 9 25 0 -5
BITMAP
0000
0000
0000
0000
6600
6600
0000
0000
0000
0000
0000
0000
0000
0000
0000
0000
0000
0000
0000
0000
0000
0000
0000
0000
0000
ENDCHAR

STARTCHAR copyright
ENCODING 169
SWIDTH 360 0
DWIDTH 9 0
BBX 9 25 0 -5
BITMAP
0000
0000
0000
0000
0000
0000
3C00
7E00
C300
9D00
BD00
B100
B100
B100
BD00
9D00
C300
7E00
3C00
0000
0000
0000
0000
0000
0000
ENDCHAR

STARTCHAR ordfeminine
ENCODING 170
SWIDTH 360 0
DWIDTH 9 0
BBX 9 25 0 -5
BITMAP
0000
0000
0000
3E00
3F00
0300
0300
1F00
3F00
3300
3300
3F00
1F00
0000
7F00
7F00
0000
0000
0000
0000
0000
0000
0000
0000
0000
ENDCHAR

STARTCHAR guillemotleft
ENCODING 171
SWIDTH 360 0
DWIDTH 9 0
BBX 9 25 0 -5
BITMAP
0000
0000
0000
0000
0000
0000
0000
0000
0000
3300
3300
3300
6600
6600
6600
6600
6600
3300
3300
3300
0000
0000
0000
0000
0000
ENDCHAR

STARTCHAR logicalnot
ENCODING 172
SWIDTH 360 0
DWIDTH 9 0
BBX 9 25 0 -5
BITMAP
0000
0000
0000
0000
0000
0000
0000
0000
0000
0000
0000
0000
FF00
FF00
0300
0300
0300
0000
0000
0000
0000
0000
0000
0000
0000
ENDCHAR

STARTCHAR hyphen
ENCODING 173
SWIDTH 360 0
DWIDTH 9 0
BBX 9 25 0 -5
BITMAP
0000
0000
0000
0000
0000
0000
0000
0000
0000
0000
0000
0000
0000
3E00
3E00
0000
0000
0000
0000
0000
0000
0000
0000
0000
0000
ENDCHAR

STARTCHAR registered
ENCODING 174
SWIDTH 360 0
DWIDTH 9 0
BBX 9 25 0 -5
BITMAP
0000
0000
0000
0000
0000
0000
3C00
7E00
C300
BD00
B500
B500
BD00
B900
B500
B500
B500
C300
C300
7E00
3C00
0000
0000
0000
0000
ENDCHAR

STARTCHAR macron
ENCODING 175
SWIDTH 360 0
DWIDTH 9 0
BBX 9 25 0 -5
BITMAP
0000
0000
0000
0000
3E00
3E00
0000
0000
0000
0000
0000
0000
0000
0000
0000
0000
0000
0000
0000
0000
0000
0000
0000
0000
0000
ENDCHAR

STARTCHAR degree
ENCODING 176
SWIDTH 360 0
DWIDTH 9 0
BBX 9 25 0 -5
BITMAP
0000
0000
0000
3C00
7E00
6600
6600
6600
6600
7E00
3C00
0000
0000
0000
0000
0000
0000
0000
0000
0000
0000
0000
0000
0000
0000
ENDCHAR

STARTCHAR plusminus
ENCODING 177
SWIDTH 360 0
DWIDTH 9 0
BBX 9 25 0 -5
BITMAP
0000
0000
0000
0000
0000
0000
0000
0000
0000
1800
1800
1800
7E00
7E00
1800
1800
1800
0000
7E00
7E00
0000
0000
0000
0000
0000
ENDCHAR

STARTCHAR twosuperior
ENCODING 178
SWIDTH 360 0
DWIDTH 9 0
BBX 9 25 0 -5
BITMAP
0000
0000
0000
3C00
3E00
0600
0600
0C00
1800
1800
3000
3E00
3E00
0000
0000
0000
0000
0000
0000
0000
0000
0000
0000
0000
0000
ENDCHAR

STARTCHAR threesuperior
ENCODING 179
SWIDTH 360 0
DWIDTH 9 0
BBX 9 25 0 -5
BITMAP
0000
0000
0000
3C00
3E00
0600
0600
1C00
1C00
0600
0600
3E00
3C00
0000
0000
0000
0000
0000
0000
0000
0000
0000
0000
0000
0000
ENDCHAR

STARTCHAR acute
ENCODING 180
SWIDTH 360 0
DWIDTH 9 0
BBX 9 25 0 -5
BITMAP
0000
0000
0E00
0C00
1800
1800
0000
0000
0000
0000
0000
0000
0000
0000
0000
0000
0000
0000
0000
0000
0000
0000
0000
0000
0000
ENDCHAR

STARTCHAR mu
ENCODING 181
SWIDTH 360 0
DWIDTH 9 0
BBX 9 25 0 -5
BITMAP
0000
0000
0000
0000
0000
0000
0000
0000
3300
3300
3300
3300
3300
3300
6300
6600
6600
6600
7F00
7B00
C000
C000
C000
C000
0000
ENDCHAR

STARTCHAR paragraph
ENCODING 182
SWIDTH 360 0
DWIDTH 9 0
BBX 9 25 0 -5
BITMAP
0000
0000
0000
0000
0000
3F00
7F00
F300
F300
F300
F300
7300
3300
3300
3300
3300
3300
3300
3300
3300
3300
3300
0000
0000
0000
ENDCHAR

STARTCHAR periodcentered
ENCODING 183
SWIDTH 360 0
DWIDTH 9 0
BBX 9 25 0 -5
BITMAP
0000
0000
0000
0000
0000
0000
0000
0000
0000
0000
0000
0000
1800
3C00
1800
0000
0000
0000
0000
0000
0000
0000
0000
0000
0000
ENDCHAR

STARTCHAR cedilla
ENCODING 184
SWIDTH 360 0
DWIDTH 9 0
BBX 9 25 0 -5
BITMAP
0000
0000
0000
0000
0000
0000
0000
0000
0000
0000
0000
0000
0000
0000
0000
0000
0000
0000
0000
1800
1800
0C00
3C00
3800
0000
ENDCHAR

STARTCHAR onesuperior
ENCODING 185
SWIDTH 360 0
DWIDTH 9 0
BBX 9 25 0 -5
BITMAP
0000
0000
0000
1800
3800
3800
1800
1800
1800
1800
1800
3C00
3C00
0000
0000
0000
0000
0000
0000
0000
0000
0000
0000
0000
0000
ENDCHAR

STARTCHAR ordmasculine
ENCODING 186
SWIDTH 360 0
DWIDTH 9 0
BBX 9 25 0 -5
BITMAP
0000
0000
0000
3E00
7F00
6300
6300
6300
6300
6300
6300
7F00
3E00
0000
7F00
7F00
0000
0000
0000
0000
0000
0000
0000
0000
0000
ENDCHAR

STARTCHAR guillemotright
ENCODING 187
SWIDTH 360 0
DWIDTH 9 0
BBX 9 25 0 -5
BITMAP
0000
0000
0000
0000
0000
0000
0000
0000
0000
6600
6600
6600
3300
3300
3300
3300
3300
6600
6600
6600
0000
0000
0000
0000
0000
ENDCHAR

STARTCHAR onequarter
ENCODING 188
SWIDTH 360 0
DWIDTH 9 0
BBX 9 25 0 -5
BITMAP
0000
0000
0000
3000
7000
7000
3000
3000
3000
3000
7800
7980
0780
0E00
3800
F300
C700
0700
0B00
1B00
1F00
1F80
0300
0300
0000
ENDCHAR

STARTCHAR onehalf
ENCODING 189
SWIDTH 360 0
DWIDTH 9 0
BBX 9 25 0 -5
BITMAP
0000
0000
0000
3000
7000
7000
3000
3000
3000
3000
7980
7B80
0700
1C00
3800
EE00
CF00
0300
0300
0600
0600
0C00
0F00
0F00
0000
ENDCHAR

STARTCHAR threequarters
ENCODING 190
SWIDTH 360 0
DWIDTH 9 0
BBX 9 25 0 -5
BITMAP
0000
0000
0000
7800
7C00
0C00
3800
3800
0C00
0C00
7D80
7B80
0700
0C00
1800
7300
E700
C700
0B00
1B00
1F00
1F80
0300
0300
0000
ENDCHAR

STARTCHAR questiondown
ENCODING 191
SWIDTH 360 0
DWIDTH 9 0
BBX 9 25 0 -5
BITMAP
0000
0000
0000
0000
0000
0000
0000
0800
1C00
1C00
0800
0000
0C00
0C00
1800
3800
3000
6000
6000
6300
7F00
3E00
0000
0000
0000
ENDCHAR

STARTCHAR Agrave
ENCODING 192
SWIDTH 360 0
DWIDTH 9 0
BBX 9 25 0 -5
BITMAP
7000
3000
1800
1800
0000
1C00
3E00
3E00
6300
6300
6300
6300
6300
7F00
7F00
6300
6300
6300
6300
6300
0000
0000
0000
0000
0000
ENDCHAR

STARTCHAR Aacute
ENCODING 193
SWIDTH 360 0
DWIDTH 9 0
BBX 9 25 0 -5
BITMAP
0700
0600
0C00
0C00
0000
1C00
3E00
3E00
6300
6300
6300
6300
6300
7F00
7F00
6300
6300
6300
6300
6300
0000
0000
0000
0000
0000
ENDCHAR

STARTCHAR Acircumflex
ENCODING 194
SWIDTH 360 0
DWIDTH 9 0
BBX 9 25 0 -5
BITMAP
0800
1C00
3600
6300
0000
1C00
3E00
3E00
6300
6300
6300
6300
6300
7F00
7F00
6300
6300
6300
6300
6300
0000
0000
0000
0000
0000
ENDCHAR

STARTCHAR Atilde
ENCODING 195
SWIDTH 360 0
DWIDTH 9 0
BBX 9 25 0 -5
BITMAP
0000
1900
3F00
2600
0000
1C00
3E00
3E00
6300
6300
6300
6300
6300
7F00
7F00
6300
6300
6300
6300
6300
0000
0000
0000
0000
0000
ENDCHAR

STARTCHAR Adieresis
ENCODING 196
SWIDTH 360 0
DWIDTH 9 0
BBX 9 25 0 -5
BITMAP
0000
3300
3300
0000
0000
1C00
3E00
3E00
6300
6300
6300
6300
6300
7F00
7F00
6300
6300
6300
6300
6300
0000
0000
0000
0000
0000
ENDCHAR

STARTCHAR Aring
ENCODING 197
SWIDTH 360 0
DWIDTH 9 0
BBX 9 25 0 -5
BITMAP
1C00
3E00
2200
3E00
1C00
1C00
3E00
3E00
6300
6300
6300
6300
6300
7F00
7F00
6300
6300
6300
6300
6300
0000
0000
0000
0000
0000
ENDCHAR

STARTCHAR AE
ENCODING 198
SWIDTH 360 0
DWIDTH 9 0
BBX 9 25 0 -5
BITMAP
0000
0000
0000
0000
0000
1F80
3F80
3600
6600
6600
6600
6780
6780
7E00
7E00
6600
6600
6600
6780
6780
0000
0000
0000
0000
0000
ENDCHAR

STARTCHAR Ccedilla
ENCODING 199
SWIDTH 360 0
DWIDTH 9 0
BBX 9 25 0 -5
BITMAP
0000
0000
0000
0000
0000
3B00
7F00
6300
6300
6000
6000
6000
6000
6000
6000
6000
6300
6300
7F00
3E00
1800
0C00
3C00
3800
0000
ENDCHAR

STARTCHAR Egrave
ENCODING 200
SWIDTH 360 0
DWIDTH 9 0
BBX 9 25 0 -5
BITMAP
3800
1800
0C00
0C00
0000
3F00
3F00
3000
3000
3000
3000
3F00
3F00
3000
3000
3000
3000
3000
3F00
3F00
0000
0000
0000
0000
0000
ENDCHAR

STARTCHAR Eacute
ENCODING 201
SWIDTH 360 0
DWIDTH 9 0
BBX 9 25 0 -5
BITMAP
0700
0600
0C00
0C00
0000
3F00
3F00
3000
3000
3000
3000
3F00
3F00
3000
3000
3000
3000
3000
3F00
3F00
0000
0000
0000
0000
0000
ENDCHAR

STARTCHAR Ecircumflex
ENCODING 202
SWIDTH 360 0
DWIDTH 9 0
BBX 9 25 0 -5
BITMAP
0800
1C00
3600
6300
0000
3F00
3F00
3000
3000
3000
3000
3F00
3F00
3000
3000
3000
3000
3000
3F00
3F00
0000
0000
0000
0000
0000
ENDCHAR

STARTCHAR Edieresis
ENCODING 203
SWIDTH 360 0
DWIDTH 9 0
BBX 9 25 0 -5
BITMAP
0000
3300
3300
0000
0000
3F00
3F00
3000
3000
3000
3000
3F00
3F00
3000
3000
3000
3000
3000
3F00
3F00
0000
0000
0000
0000
0000
ENDCHAR

STARTCHAR Igrave
ENCODING 204
SWIDTH 360 0
DWIDTH 9 0
BBX 9 25 0 -5
BITMAP
7000
3000
1800
1800
0000
7E00
7E00
1800
1800
1800
1800
1800
1800
1800
1800
1800
1800
1800
7E00
7E00
0000
0000
0000
0000
0000
ENDCHAR

STARTCHAR Iacute
ENCODING 205
SWIDTH 360 0
DWIDTH 9 0
BBX 9 25 0 -5
BITMAP
0E00
0C00
1800
1800
0000
7E00
7E00
1800
1800
1800
1800
1800
1800
1800
1800
1800
1800
1800
7E00
7E00
0000
0000
0000
0000
0000
ENDCHAR

STARTCHAR Icircumflex
ENCODING 206
SWIDTH 360 0
DWIDTH 9 0
BBX 9 25 0 -5
BITMAP
0800
1C00
3600
6300
0000
7E00
7E00
1800
1800
1800
1800
1800
1800
1800
1800
1800
1800
1800
7E00
7E00
0000
0000
0000
0000
0000
ENDCHAR

STARTCHAR Idieresis
ENCODING 207
SWIDTH 360 0
DWIDTH 9 0
BBX 9 25 0 -5
BITMAP
0000
6600
6600
0000
0000
7E00
7E00
1800
1800
1800
1800
1800
1800
1800
1800
1800
1800
1800
7E00
7E00
0000
0000
0000
0000
0000
ENDCHAR

STARTCHAR Eth
ENCODING 208
SWIDTH 360 0
DWIDTH 9 0
BBX 9 25 0 -5
BITMAP
0000
0000
0000
0000
0000
7E00
7F00
6300
6300
6300
6300
F300
F300
6300
6300
6300
6300
6300
7F00
7E00
0000
0000
0000
0000
0000
ENDCHAR

STARTCHAR Ntilde
ENCODING 209
SWIDTH 360 0
DWIDTH 9 0
BBX 9 25 0 -5
BITMAP
0000
3900
7F00
4600
0000
6300
6300
6300
7300
7300
7300
7B00
6B00
6B00
6F00
6700
6700
6300
6300
6300
0000
0000
0000
0000
0000
ENDCHAR

STARTCHAR Ograve
ENCODING 210
SWIDTH 360 0
DWIDTH 9 0
BBX 9 25 0 -5
BITMAP
3800
1800
0C00
0C00
0000
3E00
7F00
6300
6300
6300
6300
6300
6300
6300
6300
6300
6300
6300
7F00
3E00
0000
0000
0000
0000
0000
ENDCHAR

STARTCHAR Oacute
ENCODING 211
SWIDTH 360 0
DWIDTH 9 0
BBX 9 25 0 -5
BITMAP
0700
0600
0C00
0C00
0000
3E00
7F00
6300
6300
6300
6300
6300
6300
6300
6300
6300
6300
6300
7F00
3E00
0000
0000
0000
0000
0000
ENDCHAR

STARTCHAR Ocircumflex
ENCODING 212
SWIDTH 360 0
DWIDTH 9 0
BBX 9 25 0 -5
BITMAP
0800
1C00
3600
6300
0000
3E00
7F00
6300
6300
6300
6300
6300
6300
6300
6300
6300
6300
6300
7F00
3E00
0000
0000
0000
0000
0000
ENDCHAR

STARTCHAR Otilde
ENCODING 213
SWIDTH 360 0
DWIDTH 9 0
BBX 9 25 0 -5
BITMAP
0000
3900
7F00
4600
0000
3E00
7F00
6300
6300
6300
6300
6300
6300
6300
6300
6300
6300
6300
7F00
3E00
0000
0000
0000
0000
0000
ENDCHAR

STARTCHAR Odieresis
ENCODING 214
SWIDTH 360 0
DWIDTH 9 0
BBX 9 25 0 -5
BITMAP
0000
3600
3600
0000
0000
3E00
7F00
6300
6300
6300
6300
6300
6300
6300
6300
6300
6300
6300
7F00
3E00
0000
0000
0000
0000
0000
ENDCHAR

STARTCHAR multiply
ENCODING 215
SWIDTH 360 0
DWIDTH 9 0
BBX 9 25 0 -5
BITMAP
0000
0000
0000
0000
0000
0000
0000
0000
6600
6600
6600
2400
3C00
1800
3C00
6600
6600
6600
6600
0000
0000
0000
0000
0000
0000
ENDCHAR

STARTCHAR Oslash
ENCODING 216
SWIDTH 360 0
DWIDTH 9 0
BBX 9 25 0 -5
BITMAP
0000
0000
0000
0100
0100
3E00
7F00
6300
6700
6700
6700
6B00
6B00
6B00
7300
7300
7300
6300
7F00
3E00
4000
4000
0000
0000
0000
ENDCHAR

STARTCHAR Ugrave
ENCODING 217
SWIDTH 360 0
DWIDTH 9 0
BBX 9 25 0 -5
BITMAP
3800
1800
0C00
0C00
0000
6300
6300
6300
6300
6300
6300
6300
6300
6300
6300
6300
6300
6300
7F00
3E00
0000
0000
0000
0000
0000
ENDCHAR

STARTCHAR Uacute
ENCODING 218
SWIDTH 360 0
DWIDTH 9 0
BBX 9 25 0 -5
BITMAP
0700
0600
0C00
0C00
0000
6300
6300
6300
6300
6300
6300
6300
6300
6300
6300
6300
6300
6300
7F00
3E00
0000
0000
0000
0000
0000
ENDCHAR

STARTCHAR Ucircumflex
ENCODING 219
SWIDTH 360 0
DWIDTH 9 0
BBX 9 25 0 -5
BITMAP
0800
1C00
3600
6300
0000
6300
6300
6300
6300
6300
6300
6300
6300
6300
6300
6300
6300
6300
7F00
3E00
0000
0000
0000
0000
0000
ENDCHAR

STARTCHAR Udieresis
ENCODING 220
SWIDTH 360 0
DWIDTH 9 0
BBX 9 25 0 -5
BITMAP
0000
3300
3300
0000
0000
6300
6300
6300
6300
6300
6300
6300
6300
6300
6300
6300
6300
6300
7F00
3E00
0000
0000
0000
0000
0000
ENDCHAR

STARTCHAR Yacute
ENCODING 221
SWIDTH 360 0
DWIDTH 9 0
BBX 9 25 0 -5
BITMAP
0700
0600
0C00
0C00
0000
6180
6180
6180
6180
6180
6180
3300
3F00
1E00
0C00
0C00
0C00
0C00
0C00
0C00
0000
0000
0000
0000
0000
ENDCHAR

STARTCHAR Thorn
ENCODING 222
SWIDTH 360 0
DWIDTH 9 0
BBX 9 25 0 -5
BITMAP
0000
0000
0000
0000
0000
6000
6000
6000
7E00
7F00
6300
6300
6300
6300
7F00
7E00
6000
6000
6000
6000
0000
0000
0000
0000
0000
ENDCHAR

STARTCHAR germandbls
ENCODING 223
SWIDTH 360 0
DWIDTH 9 0
BBX 9 25 0 -5
BITMAP
0000
0000
0000
0000
0000
3E00
7F00
6300
6300
6300
6E00
6F00
6300
6300
6300
6300
6300
6300
6F00
6E00
0000
0000
0000
0000
0000
ENDCHAR

STARTCHAR agrave
ENCODING 224
SWIDTH 360 0
DWIDTH 9 0
BBX 9 25 0 -5
BITMAP
0000
0000
3800
1800
0C00
0C00
0000
0000
3E00
7F00
0300
0300
3F00
7F00
6300
6300
6300
6300
7F00
3B00
0000
0000
0000
0000
0000
ENDCHAR

STARTCHAR aacute
ENCODING 225
SWIDTH 360 0
DWIDTH 9 0
BBX 9 25 0 -5
BITMAP
0000
0000
0E00
0C00
1800
1800
0000
0000
3E00
7F00
0300
0300
3F00
7F00
6300
6300
6300
6300
7F00
3B00
0000
0000
0000
0000
0000
ENDCHAR

STARTCHAR acircumflex
ENCODING 226
SWIDTH 360 0
DWIDTH 9 0
BBX 9 25 0 -5
BITMAP
0000
0000
0800
1C00
3600
6300
0000
0000
3E00
7F00
0300
0300
3F00
7F00
6300
6300
6300
6300
7F00
3B00
0000
0000
0000
0000
0000
ENDCHAR

STARTCHAR atilde
ENCODING 227
SWIDTH 360 0
DWIDTH 9 0
BBX 9 25 0 -5
BITMAP
0000
0000
0000
3200
7E00
4C00
0000
0000
3E00
7F00
0300
0300
3F00
7F00
6300
6300
6300
6300
7F00
3B00
0000
0000
0000
0000
0000
ENDCHAR

STARTCHAR adieresis
ENCODING 228
SWIDTH 360 0
DWIDTH 9 0
BBX 9 25 0 -5
BITMAP
0000
0000
0000
0000
3300
3300
0000
0000
3E00
7F00
0300
0300
3F00
7F00
6300
6300
6300
6300
7F00
3B00
0000
0000
0000
0000
0000
ENDCHAR

STARTCHAR aring
ENCODING 229
SWIDTH 360 0
DWIDTH 9 0
BBX 9 25 0 -5
BITMAP
0000
0000
0C00
1E00
1200
1E00
0C00
0000
3E00
7F00
0300
0300
3F00
7F00
6300
6300
6300
6300
7F00
3B00
0000
0000
0000
0000
0000
ENDCHAR

STARTCHAR ae
ENCODING 230
SWIDTH 360 0
DWIDTH 9 0
BBX 9 25 0 -5
BITMAP
0000
0000
0000
0000
0000
0000
0000
0000
EE00
FF00
1900
1900
1900
7F00
FF00
9800
9800
9800
FF00
7700
0000
0000
0000
0000
0000
ENDCHAR

STARTCHAR ccedilla
ENCODING 231
SWIDTH 360 0
DWIDTH 9 0
BBX 9 25 0 -5
BITMAP
0000
0000
0000
0000
0000
0000
0000
0000
3D00
7F00
6300
6300
6000
6000
6000
6000
6300
6300
7F00
3E00
0C00
0600
1E00
1C00
0000
ENDCHAR

STARTCHAR egrave
ENCODING 232
SWIDTH 360 0
DWIDTH 9 0
BBX 9 25 0 -5
BITMAP
0000
0000
7000
3000
1800
1800
0000
0000
3E00
7F00
6300
6300
6300
7F00
7F00
6000
6300
6300
7F00
3E00
0000
0000
0000
0000
0000
ENDCHAR

STARTCHAR eacute
ENCODING 233
SWIDTH 360 0
DWIDTH 9 0
BBX 9 25 0 -5
BITMAP
0000
0000
0700
0600
0C00
0C00
0000
0000
3E00
7F00
6300
6300
6300
7F00
7F00
6000
6300
6300
7F00
3E00
0000
0000
0000
0000
0000
ENDCHAR

STARTCHAR ecircumflex
ENCODING 234
SWIDTH 360 0
DWIDTH 9 0
BBX 9 25 0 -5
BITMAP
0000
0000
0800
1C00
3600
6300
0000
0000
3E00
7F00
6300
6300
6300
7F00
7F00
6000
6300
6300
7F00
3E00
0000
0000
0000
0000
0000
ENDCHAR

STARTCHAR edieresis
ENCODING 235
SWIDTH 360 0
DWIDTH 9 0
BBX 9 25 0 -5
BITMAP
0000
0000
0000
0000
3300
3300
0000
0000
3E00
7F00
6300
6300
6300
7F00
7F00
6000
6300
6300
7F00
3E00
0000
0000
0000
0000
0000
ENDCHAR

STARTCHAR igrave
ENCODING 236
SWIDTH 360 0
DWIDTH 9 0
BBX 9 25 0 -5
BITMAP
0000
0000
7000
3000
1800
1800
0000
0000
7800
7800
1800
1800
1800
1800
1800
1800
1800
1800
7E00
7E00
0000
0000
0000
0000
0000
ENDCHAR

STARTCHAR iacute
ENCODING 237
SWIDTH 360 0
DWIDTH 9 0
BBX 9 25 0 -5
BITMAP
0000
0000
0E00
0C00
1800
1800
0000
0000
7800
7800
1800
1800
1800
1800
1800
1800
1800
1800
7E00
7E00
0000
0000
0000
0000
0000
ENDCHAR

STARTCHAR icircumflex
ENCODING 238
SWIDTH 360 0
DWIDTH 9 0
BBX 9 25 0 -5
BITMAP
0000
0000
1000
3800
6C00
C600
0000
0000
7800
7800
1800
1800
1800
1800
1800
1800
1800
1800
7E00
7E00
0000
0000
0000
0000
0000
ENDCHAR

STARTCHAR idieresis
ENCODING 239
SWIDTH 360 0
DWIDTH 9 0
BBX 9 25 0 -5
BITMAP
0000
0000
0000
0000
6600
6600
0000
0000
7800
7800
1800
1800
1800
1800
1800
1800
1800
1800
7E00
7E00
0000
0000
0000
0000
0000
ENDCHAR

STARTCHAR eth
ENCODING 240
SWIDTH 360 0
DWIDTH 9 0
BBX 9 25 0 -5
BITMAP
0000
0000
0000
3180
3B00
0C00
3E00
6600
0300
3F00
7F00
6300
6300
6300
6300
6300
6300
6300
7F00
3E00
0000
0000
0000
0000
0000
ENDCHAR

STARTCHAR ntilde
ENCODING 241
SWIDTH 360 0
DWIDTH 9 0
BBX 9 25 0 -5
BITMAP
0000
0000
0000
3900
7F00
4600
0000
0000
6E00
7F00
6300
6300
6300
6300
6300
6300
6300
6300
6300
6300
0000
0000
0000
0000
0000
ENDCHAR

STARTCHAR ograve
ENCODING 242
SWIDTH 360 0
DWIDTH 9 0
BBX 9 25 0 -5
BITMAP
0000
0000
3800
1800
0C00
0C00
0000
0000
3E00
7F00
6300
6300
6300
6300
6300
6300
6300
6300
7F00
3E00
0000
0000
0000
0000
0000
ENDCHAR

STARTCHAR oacute
ENCODING 243
SWIDTH 360 0
DWIDTH 9 0
BBX 9 25 0 -5
BITMAP
0000
0000
0700
0600
0C00
0C00
0000
0000
3E00
7F00
6300
6300
6300
6300
6300
6300
6300
6300
7F00
3E00
0000
0000
0000
0000
0000
ENDCHAR

STARTCHAR ocircumflex
ENCODING 244
SWIDTH 360 0
DWIDTH 9 0
BBX 9 25 0 -5
BITMAP
0000
0000
0800
1C00
3600
6300
0000
0000
3E00
7F00
6300
6300
6300
6300
6300
6300
6300
6300
7F00
3E00
0000
0000
0000
0000
0000
ENDCHAR

STARTCHAR otilde
ENCODING 245
SWIDTH 360 0
DWIDTH 9 0
BBX 9 25 0 -5
BITMAP
0000
0000
0000
3900
7F00
4600
0000
0000
3E00
7F00
6300
6300
6300
6300
6300
6300
6300
6300
7F00
3E00
0000
0000
0000
0000
0000
ENDCHAR

STARTCHAR odieresis
ENCODING 246
SWIDTH 360 0
DWIDTH 9 0
BBX 9 25 0 -5
BITMAP
0000
0000
0000
0000
3300
3300
0000
0000
3E00
7F00
6300
6300
6300
6300
6300
6300
6300
6300
7F00
3E00
0000
0000
0000
0000
0000
ENDCHAR

STARTCHAR divide
ENCODING 247
SWIDTH 360 0
DWIDTH 9 0
BBX 9 25 0 -5
BITMAP
0000
0000
0000
0000
0000
0000
0000
0000
1800
3C00
1800
0000
7E00
7E00
0000
1800
3C00
1800
0000
0000
0000
0000
0000
0000
0000
ENDCHAR

STARTCHAR oslash
ENCODING 248
SWIDTH 360 0
DWIDTH 9 0
BBX 9 25 0 -5
BITMAP
0000
0000
0000
0000
0000
0000
0000
0180
3F80
7F00
6300
6700
6700
6B00
6B00
7300
7300
6300
7F00
FE00
C000
0000
0000
0000
0000
ENDCHAR

STARTCHAR ugrave
ENCODING 249
SWIDTH 360 0
DWIDTH 9 0
BBX 9 25 0 -5
BITMAP
0000
0000
3800
1800
0C00
0C00
0000
0000
6300
6300
6300
6300
6300
6300
6300
6300
6300
6300
7F00
3B00
0000
0000
0000
0000
0000
ENDCHAR

STARTCHAR uacute
ENCODING 250
SWIDTH 360 0
DWIDTH 9 0
BBX 9 25 0 -5
BITMAP
0000
0000
0E00
0C00
1800
1800
0000
0000
6300
6300
6300
6300
6300
6300
6300
6300
6300
6300
7F00
3B00
0000
0000
0000
0000
0000
ENDCHAR

STARTCHAR ucircumflex
ENCODING 251
SWIDTH 360 0
DWIDTH 9 0
BBX 9 25 0 -5
BITMAP
0000
0000
0800
1C00
3600
6300
0000
0000
6300
6300
6300
6300
6300
6300
6300
6300
6300
6300
7F00
3B00
0000
0000
0000
0000
0000
ENDCHAR

STARTCHAR udieresis
ENCODING 252
SWIDTH 360 0
DWIDTH 9 0
BBX 9 25 0 -5
BITMAP
0000
0000
0000
0000
3300
3300
0000
0000
6300
6300
6300
6300
6300
6300
6300
6300
6300
6300
7F00
3B00
0000
0000
0000
0000
0000
ENDCHAR

STARTCHAR yacute
ENCODING 253
SWIDTH 360 0
DWIDTH 9 0
BBX 9 25 0 -5
BITMAP
0000
0000
0E00
0C00
1800
1800
0000
0000
6300
6300
6300
6300
6300
6300
3600
3600
1C00
1C00
1800
1800
3800
3000
7000
7000
0000
ENDCHAR

STARTCHAR thorn
ENCODING 254
SWIDTH 360 0
DWIDTH 9 0
BBX 9 25 0 -5
BITMAP
0000
0000
0000
0000
6000
6000
6000
6000
6E00
7F00
6300
6300
6300
6300
6300
6300
6300
6300
7F00
7E00
6000
6000
6000
6000
0000
ENDCHAR

STARTCHAR ydieresis
ENCODING 255
SWIDTH 360 0
DWIDTH 9 0
BBX 9 25 0 -5
BITMAP
0000
0000
0000
0000
6600
6600
0000
0000
6300
6300
6300
6300
6300
6300
3600
3600
1C00
1C00
1800
1800
3800
3000
7000
7000
0000
ENDCHAR
ENDFONT
